<svg xmlns="http://www.w3.org/2000/svg" width="256" height="256" viewBox="0 0 256 256" role="img" aria-label="Estate Law Aid mark"><rect width="256" height="256" rx="42" fill="#ffffff"/><path d="M42 220V112c0-64 38-94 86-94s86 30 86 94v108" fill="none" stroke="#17324d" stroke-width="14"/><path d="M72 218c28-52 66-81 116-99" fill="none" stroke="#2f6f62" stroke-width="22" stroke-linecap="round"/><path d="M111 220c20-35 44-55 73-68" fill="none" stroke="#b4833e" stroke-width="9" stroke-linecap="round"/><circle cx="128" cy="82" r="15" fill="#2f6f62"/><path d="M128 102v64M128 123l-28-22M128 133l31-26" stroke="#2f6f62" stroke-width="10" stroke-linecap="round"/><path d="M96 96c-20-22-35-21-46-14 12 21 27 27 46 14zm64 3c20-22 35-21 46-14-12 21-27 27-46 14z" fill="#2f6f62"/></svg>